<svg width="307" height="232" viewBox="0 0 307 232" fill="none" xmlns="http://www.w3.org/2000/svg">
<path d="M260.058 19.4296C239.888 10.2221 218.595 3.68989 196.722 0C193.729 5.33504 191.021 10.8241 188.609 16.4442C165.31 12.9435 141.617 12.9435 118.318 16.4442C115.905 10.8247 113.197 5.33569 110.205 0C88.3179 3.72105 67.0104 10.2687 46.82 19.4778C6.73666 78.6094 -4.12929 136.272 1.30368 193.117C24.7775 210.41 51.0513 223.561 78.9832 232C85.2726 223.566 90.8379 214.618 95.6201 205.251C86.537 201.869 81.5 202.5 69 202.5C69 199 70.9234 197.089 73 195.5C99.5 190.5 126.654 191 153.5 191C180.346 191 208.5 193 233 195C235.101 196.709 237.5 201.5 237.5 204C229.5 202 220.43 201.885 211.33 205.275C216.107 214.637 221.673 223.578 227.967 232C255.923 223.595 282.217 210.45 305.695 193.141C312.07 127.22 294.805 70.0863 260.058 19.4296ZM101.609 171.5C86.4686 171.5 73.9124 165.853 73.9124 149C73.9124 132.147 86.0823 124 101.609 124C117.135 124 129.449 132.147 129.184 149C128.918 165.853 117.038 171.5 101.609 171.5ZM203.604 171.5C188.44 171.5 175.932 165.853 175.932 149C175.932 132.147 188.101 124 203.652 124C219.202 124 231.42 132.147 231.155 149C230.889 165.853 219.033 171.5 203.604 171.5Z" fill="gray"/>
</svg>
